<?xml version="1.0" standalone="no"?>
<!DOCTYPE svg PUBLIC "-//W3C//DTD SVG 20010904//EN"
 "http://www.w3.org/TR/2001/REC-SVG-20010904/DTD/svg10.dtd">
<svg version="1.0" xmlns="http://www.w3.org/2000/svg"
 width="728.000000pt" height="728.000000pt" viewBox="0 0 728.000000 728.000000"
 preserveAspectRatio="xMidYMid meet">
<metadata>
Created by potrace 1.14, written by Peter Selinger 2001-2017
</metadata>
<g transform="translate(0.000000,728.000000) scale(0.100000,-0.100000)"
fill="#000000" stroke="none">
<path d="M3381 6902 l-54 -3 5 -83 6 -84 -37 -6 c-20 -3 -55 -6 -77 -6 l-41 0
-7 46 c-3 26 -6 59 -6 74 0 51 -13 52 -191 20 -183 -34 -199 -38 -199 -50 0
-5 23 -76 50 -156 28 -81 47 -151 43 -155 -10 -8 -353 -102 -357 -97 -2 1 -25
66 -51 143 -56 163 -61 175 -79 175 -16 0 -278 -99 -289 -110 -5 -4 3 -34 17
-66 l24 -59 -71 -37 -72 -36 -33 64 c-18 35 -38 64 -45 64 -26 1 -237 -104
-237 -117 0 -7 24 -60 54 -116 113 -212 102 -200 169 -172 43 18 36 25 118
-135 35 -69 67 -127 70 -130 22 -18 30 -57 24 -110 -6 -51 -4 -61 14 -79 12
-12 27 -21 35 -21 8 0 16 -7 20 -15 3 -8 12 -15 21 -15 17 0 77 -88 69 -101
-2 -4 5 -13 16 -19 24 -13 26 -45 5 -58 -23 -12 -28 -60 -10 -88 9 -14 13 -29
10 -34 -4 -6 -94 -10 -224 -10 -181 0 -221 -3 -231 -15 -9 -11 -11 -139 -9
-560 l4 -545 -23 70 c-17 50 -28 70 -40 69 -10 0 -65 -66 -131 -155 -62 -86
-117 -152 -121 -147 -8 8 -50 131 -50 145 0 4 9 8 20 8 52 0 128 69 150 136 7
21 10 57 7 87 -5 40 -3 54 13 75 11 13 20 34 20 45 0 25 -36 83 -56 91 -14 5
-12 13 12 54 58 99 114 222 136 298 36 127 25 347 -18 361 -6 2 -52 -39 -102
-92 l-92 -96 0 38 c-1 79 -52 252 -77 260 -7 3 -38 -35 -71 -85 l-58 -90 -18
51 c-25 71 -76 159 -90 154 -19 -6 -71 -113 -112 -231 -37 -109 -38 -114 -37
-251 0 -115 5 -157 25 -234 23 -88 24 -96 9 -125 -21 -42 -26 -137 -11 -192
13 -47 58 -94 89 -94 10 0 30 9 43 20 l26 20 6 -40 c3 -22 14 -55 22 -74 17
-34 16 -34 -21 -96 -20 -33 -39 -60 -41 -58 -2 2 -31 59 -64 127 -73 148 -83
151 -116 36 -59 -201 -77 -305 -78 -445 -1 -117 2 -144 22 -200 36 -101 95
-192 187 -289 l85 -89 0 -55 0 -55 -36 -6 c-19 -4 -37 -13 -40 -19 -2 -7 9
-79 26 -161 16 -82 29 -150 28 -152 -2 -1 -59 9 -128 22 -153 28 -180 30 -180
8 0 -28 152 -313 223 -419 69 -104 108 -153 216 -274 l63 -71 -87 0 c-158 0
-391 -48 -550 -113 -84 -35 -86 -42 -38 -120 l41 -66 -96 -72 c-162 -121 -251
-221 -338 -376 -44 -79 -36 -82 148 -49 84 15 163 30 176 33 20 5 16 -5 -33
-73 -31 -43 -70 -107 -86 -141 -51 -107 -77 -277 -44 -289 9 -4 61 24 128 69
367 244 495 296 767 312 321 18 390 41 390 125 0 16 5 19 28 15 15 -2 74 -11
132 -20 58 -9 119 -19 135 -23 l29 -8 -70 -60 c-38 -32 -134 -106 -214 -163
-142 -102 -295 -217 -355 -266 -26 -21 -28 -26 -15 -38 42 -39 337 -49 484
-17 49 11 91 18 93 17 2 -2 -27 -70 -64 -151 -48 -106 -63 -150 -55 -158 7 -7
36 2 104 35 51 25 194 86 318 137 325 132 441 200 570 332 46 46 62 71 66 100
4 21 8 38 10 38 2 0 71 -14 154 -30 l152 -30 104 -87 c85 -70 102 -89 92 -99
-7 -7 -132 -99 -277 -204 -255 -185 -269 -194 -375 -232 -121 -43 -145 -58
-124 -75 22 -18 279 -93 292 -86 11 7 525 373 617 439 l45 33 294 -244 c222
-185 299 -243 314 -240 12 3 81 16 155 30 74 13 137 27 140 30 15 15 -34 48
-277 185 -211 120 -284 167 -372 240 -61 51 -110 93 -110 95 0 4 259 191 289
210 13 7 123 34 146 35 6 0 10 -37 10 -92 0 -89 2 -97 40 -170 22 -43 46 -78
53 -78 8 0 48 32 89 70 41 39 78 70 82 70 3 0 20 -23 36 -51 36 -61 132 -152
215 -203 83 -52 93 -48 105 44 l10 75 55 -50 c85 -78 121 -106 131 -99 5 3 9
73 9 155 l0 151 105 -96 c156 -143 163 -132 66 93 l-70 162 27 10 c15 6 50 20
79 30 55 21 76 39 65 55 -4 5 -43 41 -87 78 -44 38 -81 72 -83 76 -4 11 280
80 328 80 4 0 13 -21 19 -46 39 -155 108 -211 303 -245 376 -67 715 -169 878
-263 74 -43 85 -38 81 39 -6 120 -48 230 -136 356 -30 43 -55 80 -55 82 0 2
69 -9 153 -25 177 -32 207 -34 207 -13 0 52 -122 227 -224 321 -61 57 -77 77
-68 86 32 32 14 52 -146 155 -179 115 -284 173 -359 197 -57 19 -54 13 -74
149 -7 53 -18 91 -25 94 -7 3 -70 -15 -140 -40 -126 -45 -126 -45 -173 -30
-57 20 -55 17 -42 40 6 10 14 60 18 111 l8 94 74 -87 c40 -47 78 -84 85 -82 6
2 31 32 56 68 25 35 53 75 62 88 l16 23 157 -82 c115 -60 160 -79 168 -71 8 8
2 72 -21 238 -18 126 -32 237 -32 248 0 14 20 32 65 60 85 52 87 85 3 85 -24
0 -58 22 -155 100 l-124 100 -100 0 c-97 0 -101 -1 -210 -50 l-110 -49 -14 32
c-7 18 -15 40 -17 49 -3 20 152 298 167 298 9 0 159 -64 465 -198 74 -33 141
-57 148 -55 19 8 14 31 -8 43 -20 11 -18 14 28 59 76 74 97 157 61 235 -12 26
-11 30 11 50 40 36 48 57 38 95 -6 19 -8 46 -5 60 9 46 18 86 23 103 3 9 -1
37 -7 63 -10 39 -19 52 -56 75 -24 16 -65 31 -91 35 -39 6 -52 14 -77 45 -41
52 -151 102 -202 92 -7 -2 -27 5 -45 14 -19 10 -58 17 -95 18 -41 1 -62 5 -59
12 2 6 33 50 68 98 l63 87 160 -6 160 -6 127 88 c134 93 131 89 145 185 4 28
-1 47 -17 75 -12 20 -23 54 -24 75 -2 21 -8 43 -13 50 -5 7 -16 35 -23 61 -21
78 -40 84 -250 89 -75 2 -170 -19 -197 -44 -28 -26 -47 -81 -40 -116 3 -15 -9
-99 -25 -187 l-31 -160 -143 -195 c-79 -107 -144 -199 -144 -203 0 -5 9 -11
20 -14 16 -4 19 -11 14 -27 -9 -29 -24 -46 -40 -46 -7 0 -15 -4 -18 -8 -3 -5
1 -69 9 -142 8 -74 13 -135 12 -136 -1 -2 -20 40 -41 93 l-38 96 31 136 c17
75 31 144 31 154 0 21 -20 22 -46 2 -10 -8 -22 -15 -26 -15 -4 0 -40 28 -80
63 -40 34 -86 73 -101 85 l-29 21 -49 -24 c-26 -14 -51 -25 -54 -25 -3 0 -5
23 -5 50 0 28 2 50 5 50 3 0 45 -9 93 -19 169 -38 445 -82 454 -73 5 5 -2 77
-17 170 l-25 161 118 193 117 193 155 8 c85 4 160 9 166 11 6 2 36 60 66 128
42 91 58 140 63 191 7 66 7 67 -16 67 -13 0 -77 -13 -142 -29 -106 -25 -127
-34 -201 -85 l-83 -57 -101 -201 c-67 -134 -102 -194 -105 -182 -16 58 -18
116 -4 138 23 34 32 208 17 305 -10 64 -18 87 -41 112 -16 18 -29 36 -29 40 0
10 -58 29 -91 29 -15 0 -29 4 -31 10 -4 13 -104 42 -150 43 -27 1 -42 -5 -57
-23 -11 -14 -20 -30 -21 -37 0 -6 -13 -20 -29 -29 -29 -17 -74 -95 -92 -157
-11 -39 10 -90 48 -114 15 -10 33 -22 39 -28 6 -5 53 -30 103 -55 84 -40 90
-46 65 -50 -27 -5 -30 -10 -38 -63 -11 -65 -3 -63 -131 -42 -49 8 -93 15 -97
15 -5 0 -8 87 -8 194 0 168 -2 195 -16 200 -9 3 -145 6 -304 6 l-288 0 10 41
c8 30 7 55 -2 94 -12 51 -11 56 12 102 14 26 35 52 47 58 11 5 21 15 21 21 0
6 13 17 29 24 55 22 76 55 73 115 -2 41 2 58 16 72 10 10 22 27 26 38 5 14
101 171 142 233 1 2 16 -4 33 -12 16 -9 35 -16 40 -16 16 0 224 317 217 329
-8 13 -245 141 -262 141 -6 0 -35 -31 -64 -69 l-53 -69 -44 13 c-25 8 -47 15
-49 17 -2 2 6 42 17 88 11 46 16 87 12 91 -10 10 -281 109 -298 109 -20 0 -23
-7 -76 -182 -26 -88 -49 -162 -52 -164 -2 -2 -44 10 -93 27 -49 17 -134 37
-188 45 -55 8 -102 16 -104 19 -2 2 8 76 23 165 17 101 24 165 18 171 -10 10
-279 59 -325 59 -27 0 -35 -16 -63 -132 -6 -24 -12 -28 -45 -28 -21 0 -52 3
-69 6 l-31 7 0 83 0 84 -47 1 c-27 0 -84 1 -128 2 -44 1 -104 1 -134 -1z
m-1486 -3492 c9 -113 21 -240 26 -284 6 -43 8 -80 5 -83 -2 -3 -47 30 -99 74
-92 75 -95 79 -90 113 2 19 0 48 -6 63 -10 26 -6 36 39 105 27 42 62 111 77
154 16 43 29 74 30 70 1 -4 9 -99 18 -212z m3615 -427 c5 -4 11 -23 15 -42 8
-37 6 -37 -50 4 -41 30 -62 36 -69 20 -2 -7 -8 -52 -12 -100 -6 -77 -8 -84
-23 -72 -9 8 -33 18 -54 21 -35 7 -38 9 -33 34 3 15 10 56 16 92 6 36 13 75
16 87 l4 21 91 -28 c51 -16 95 -32 99 -37z m-3061 -948 c49 -82 88 -151 87
-152 -1 -1 -20 3 -42 8 -37 10 -53 26 -163 165 l-122 154 12 57 13 57 63 -70
c36 -40 101 -133 152 -219z m2591 214 c22 -42 80 -78 127 -79 12 0 34 -12 49
-27 22 -22 36 -27 75 -26 40 1 52 -4 73 -28 28 -31 93 -53 138 -47 16 3 28 0
28 -7 0 -6 -52 -20 -122 -33 -68 -13 -224 -47 -347 -77 -123 -30 -229 -55
-235 -55 -6 0 -39 27 -73 59 l-61 58 68 52 c37 28 110 96 162 150 51 55 94
100 95 100 2 1 12 -17 23 -40z m-881 -518 c9 -17 5 -20 -47 -30 -272 -52 -458
-56 -711 -12 -162 28 -191 35 -180 45 2 2 58 -5 124 -16 169 -27 461 -26 644
1 74 11 136 23 139 26 10 10 21 5 31 -14z"/>
</g>
</svg>
